<svg xmlns="http://www.w3.org/2000/svg" viewBox="0 0 1920 1080" preserveAspectRatio="none">
  <defs>
    <linearGradient id="roof" x1="0" x2="0" y1="0" y2="1">
      <stop offset="0" stop-color="#10151d" stop-opacity=".76"/>
      <stop offset=".62" stop-color="#17202a" stop-opacity=".52"/>
      <stop offset="1" stop-color="#17202a" stop-opacity="0"/>
    </linearGradient>
    <linearGradient id="sill" x1="0" x2="0" y1="0" y2="1">
      <stop offset="0" stop-color="#111821" stop-opacity="0"/>
      <stop offset=".3" stop-color="#111821" stop-opacity=".42"/>
      <stop offset="1" stop-color="#0a0e14" stop-opacity=".86"/>
    </linearGradient>
    <linearGradient id="side-left" x1="0" x2="1" y1="0" y2="0">
      <stop offset="0" stop-color="#070a0f" stop-opacity=".68"/>
      <stop offset=".78" stop-color="#141c25" stop-opacity=".22"/>
      <stop offset="1" stop-color="#141c25" stop-opacity="0"/>
    </linearGradient>
    <linearGradient id="side-right" x1="1" x2="0" y1="0" y2="0">
      <stop offset="0" stop-color="#070a0f" stop-opacity=".68"/>
      <stop offset=".78" stop-color="#141c25" stop-opacity=".22"/>
      <stop offset="1" stop-color="#141c25" stop-opacity="0"/>
    </linearGradient>
    <radialGradient id="glass" cx="50%" cy="42%" r="62%">
      <stop offset="0" stop-color="#ffffff" stop-opacity=".16"/>
      <stop offset=".45" stop-color="#ffffff" stop-opacity=".05"/>
      <stop offset="1" stop-color="#ffffff" stop-opacity="0"/>
    </radialGradient>
    <filter id="soft-shadow" x="-20%" y="-20%" width="140%" height="140%">
      <feDropShadow dx="0" dy="18" stdDeviation="22" flood-color="#000000" flood-opacity=".4"/>
    </filter>
  </defs>

  <rect width="1920" height="1080" fill="url(#glass)"/>
  <path d="M0 0h1920v188c-252-56-577-83-960-83S252 132 0 188z" fill="url(#roof)"/>
  <path d="M0 0h238v1080H0z" fill="url(#side-left)"/>
  <path d="M1682 0h238v1080h-238z" fill="url(#side-right)"/>
  <path d="M0 782c285 34 607 51 960 51s675-17 960-51v298H0z" fill="url(#sill)"/>

  <g filter="url(#soft-shadow)" opacity=".9">
    <path d="M223 111c166-54 406-81 737-81s571 27 737 81" fill="none" stroke="#f5f1e8" stroke-opacity=".16" stroke-width="24"/>
    <path d="M225 150c176-47 421-70 735-70s559 23 735 70" fill="none" stroke="#111821" stroke-opacity=".32" stroke-width="18"/>
    <path d="M211 836c207 35 457 53 749 53s542-18 749-53" fill="none" stroke="#f7efe2" stroke-opacity=".16" stroke-width="22"/>
    <path d="M198 887c214 36 468 54 762 54s548-18 762-54" fill="none" stroke="#05070a" stroke-opacity=".38" stroke-width="36"/>
  </g>

  <path d="M355 70c-39 204-52 455-39 752" fill="none" stroke="#0b1017" stroke-opacity=".36" stroke-width="30"/>
  <path d="M1565 70c39 204 52 455 39 752" fill="none" stroke="#0b1017" stroke-opacity=".36" stroke-width="30"/>
  <path d="M416 105c-30 182-40 407-30 675" fill="none" stroke="#ffffff" stroke-opacity=".09" stroke-width="8"/>
  <path d="M1504 105c30 182 40 407 30 675" fill="none" stroke="#ffffff" stroke-opacity=".09" stroke-width="8"/>

  <path d="M0 606c150-17 292-19 424-6" fill="none" stroke="#ffffff" stroke-opacity=".14" stroke-width="3"/>
  <path d="M1496 600c132-13 274-11 424 6" fill="none" stroke="#ffffff" stroke-opacity=".14" stroke-width="3"/>
  <path d="M563 164 241 687" fill="none" stroke="#ffffff" stroke-opacity=".08" stroke-width="18"/>
  <path d="M1752 136 1430 660" fill="none" stroke="#ffffff" stroke-opacity=".07" stroke-width="14"/>
  <path d="M1060 91 811 746" fill="none" stroke="#ffffff" stroke-opacity=".045" stroke-width="12"/>
</svg>
